<svg width="260" height="80" viewBox="0 0 260 80" fill="none" xmlns="http://www.w3.org/2000/svg">
<path d="M250.37 0H9.62963C4.31133 0 0 4.47715 0 10V70C0 75.5229 4.31133 80 9.62963 80H250.37C255.689 80 260 75.5229 260 70V10C260 4.47715 255.689 0 250.37 0Z" fill="black"/>
<path d="M57.2081 39.7271C57.2457 36.4629 58.9541 33.4459 61.7341 31.7346C59.9814 29.1932 57.1166 27.6462 54.0304 27.5746C50.7948 27.2279 47.6748 29.5005 46.0185 29.5005C44.3622 29.5005 41.8007 27.5938 39.1237 27.5938C35.5292 27.7107 32.2603 29.7072 30.5148 32.8516C26.7978 39.2842 29.5711 48.7597 33.1341 54.0368C34.9252 56.5983 36.9859 59.4486 39.74 59.3331C42.4941 59.2175 43.3993 57.6383 46.6348 57.6383C49.8704 57.6383 50.7563 59.3331 53.5489 59.2753C56.3415 59.2175 58.2096 56.7138 59.943 54.1331C61.2227 52.3139 62.2104 50.306 62.8704 48.182C59.4519 46.7618 57.2198 43.4288 57.2081 39.7271Z" fill="white"/>
<path d="M51.9944 24.1463C53.5507 22.2673 54.3171 19.8576 54.1322 17.4248C51.7449 17.6825 49.54 18.8227 47.9499 20.6218C46.3916 22.4039 45.6022 24.7305 45.7544 27.093C48.1756 27.1168 50.4746 26.0312 51.9944 24.1463Z" fill="white"/>
<path d="M78.2042 28.9436V19.0828H74.5449V17.4458H83.5968V19.0828H79.9953V28.9436H78.2042Z" fill="white"/>
<path d="M91.8747 26.6111C91.3915 28.243 89.8113 29.2965 88.1191 29.1149C86.9606 29.1599 85.8435 28.6807 85.0777 27.8103C84.3119 26.9398 83.9788 25.7708 84.171 24.6274C84.0205 23.4782 84.3751 22.3202 85.1433 21.4523C85.9115 20.5844 87.0179 20.0917 88.1769 20.1015C90.5843 20.1015 92.0288 21.7578 92.0288 24.4734V25.0704H85.8658C85.7999 25.7206 86.0146 26.3679 86.456 26.8498C86.8974 27.3317 87.5235 27.6022 88.1769 27.5934C89.0156 27.6922 89.8328 27.2836 90.2569 26.5534L91.8747 26.6111ZM85.8658 23.7415H90.2569C90.3009 23.1535 90.0932 22.5745 89.6855 22.1484C89.2779 21.7224 88.7085 21.4894 88.1191 21.5074C87.5217 21.497 86.9455 21.7284 86.5212 22.1491C86.0969 22.5698 85.8605 23.144 85.8658 23.7415ZM87.0984 18.7726L89.0243 16.0186H90.9503L88.7162 18.7726H87.0984Z" fill="white"/>
<path d="M94.3789 16.8848H96.093V28.9411H94.3789V16.8848Z" fill="white"/>
<path d="M106.23 26.6129C105.741 28.2846 104.105 29.3484 102.379 29.1166C101.21 29.1797 100.076 28.7084 99.2973 27.8355C98.5181 26.9626 98.1779 25.7829 98.3726 24.6292C98.2221 23.48 98.5768 22.3219 99.3449 21.454C100.113 20.5861 101.22 20.0934 102.379 20.1033C104.786 20.1033 106.23 21.7596 106.23 24.4751V25.0721H100.222C100.156 25.7223 100.37 26.3697 100.812 26.8515C101.253 27.3334 101.879 27.6039 102.533 27.5951C103.367 27.6964 104.179 27.2861 104.593 26.5551L106.23 26.6129ZM100.222 23.7433H104.593C104.637 23.1552 104.43 22.5762 104.022 22.1502C103.614 21.7241 103.045 21.4912 102.456 21.5092C101.862 21.504 101.29 21.7377 100.87 22.1578C100.45 22.5779 100.216 23.1492 100.222 23.7433ZM101.512 18.8321L103.438 16.0396H105.364L103.11 18.7936L101.512 18.8321Z" fill="white"/>
<path d="M114.307 23.108C114.082 22.1824 113.214 21.5602 112.265 21.6443C110.821 21.6443 109.954 22.7421 109.954 24.591C109.954 26.4399 110.84 27.5954 112.265 27.5954C113.203 27.6832 114.066 27.0804 114.307 26.1703H115.963C115.741 27.9997 114.099 29.3171 112.265 29.1362C111.094 29.1697 109.968 28.6863 109.185 27.8146C108.402 26.9429 108.042 25.771 108.201 24.6103C108.048 23.4543 108.411 22.2893 109.194 21.425C109.976 20.5606 111.1 20.0844 112.265 20.1228C114.109 19.9537 115.751 21.2877 115.963 23.1273L114.307 23.108Z" fill="white"/>
<path d="M118.242 16.8843H119.936V21.6606H120.071C120.549 20.6432 121.609 20.0292 122.729 20.1198C123.576 20.0725 124.4 20.4049 124.977 21.0267C125.554 21.6485 125.824 22.495 125.714 23.3361V28.9406H124V23.7406C124 22.3539 123.345 21.6606 122.074 21.6606C121.479 21.6136 120.893 21.8299 120.47 22.2522C120.048 22.6746 119.832 23.2607 119.879 23.8561V28.9406H118.165L118.242 16.8843Z" fill="white"/>
<path d="M127.868 26.4949C127.868 24.9349 129.023 24.0297 131.084 23.8949L133.434 23.7408V22.9897C133.434 22.0845 132.837 21.5645 131.662 21.5645C130.487 21.5645 130.044 21.9112 129.851 22.5275H128.195C128.368 21.0445 129.774 20.0815 131.739 20.0815C133.703 20.0815 135.128 21.1601 135.128 22.9897V28.9408H133.491V27.7275H133.357C132.798 28.6166 131.806 29.1384 130.757 29.0949C130.02 29.1711 129.285 28.9319 128.735 28.4364C128.184 27.9409 127.869 27.2355 127.868 26.4949ZM133.434 25.6667V24.9541L131.315 25.0889C130.121 25.0889 129.582 25.5704 129.582 26.3408C129.582 27.1112 130.256 27.5734 131.18 27.5734C131.733 27.6267 132.285 27.4543 132.709 27.0953C133.133 26.7363 133.395 26.2211 133.434 25.6667Z" fill="white"/>
<path d="M137.832 20.277H139.469V21.6059H139.604C139.985 20.6559 140.932 20.0578 141.954 20.1229C142.21 20.099 142.468 20.099 142.724 20.1229V21.8178C142.409 21.74 142.085 21.7012 141.761 21.7022C141.187 21.6478 140.617 21.8386 140.191 22.2275C139.766 22.6164 139.524 23.1672 139.527 23.7437V28.9437H137.832V20.277Z" fill="white"/>
<path d="M144.28 29.8094H146.032C146.167 30.4449 146.899 30.8494 147.958 30.8494C149.018 30.8494 150.231 30.1753 150.231 28.9235V27.2672H150.096C149.552 28.2216 148.516 28.7878 147.419 28.7309C145.204 28.7309 143.837 27.0168 143.837 24.4168C143.837 21.8168 145.224 20.0257 147.438 20.0257C148.561 19.9872 149.611 20.5827 150.154 21.5664H150.289V20.2761H151.945V29.0198C151.945 30.9457 150.385 32.2553 147.92 32.2553C145.801 32.2553 144.453 31.2923 144.28 29.8094ZM150.347 24.4938C150.347 22.7798 149.461 21.6627 147.997 21.6627C146.533 21.6627 145.801 22.7798 145.801 24.4938C145.801 26.2079 146.63 27.3442 148.093 27.3442C149.557 27.3442 150.347 26.2464 150.347 24.4938Z" fill="white"/>
<path d="M162.096 26.6119C161.612 28.2437 160.032 29.2972 158.34 29.1156C157.172 29.1787 156.038 28.7073 155.259 27.8345C154.479 26.9616 154.139 25.7819 154.334 24.6281C154.177 23.481 154.527 22.3224 155.292 21.4536C156.058 20.5848 157.163 20.0916 158.321 20.1022C160.747 20.1022 162.173 21.7585 162.173 24.4741V25.0711H156.067C156.001 25.7213 156.216 26.3686 156.658 26.8505C157.099 27.3324 157.725 27.6029 158.378 27.5941C159.213 27.7007 160.029 27.289 160.439 26.5541L162.096 26.6119ZM156.067 23.7422H160.458C160.502 23.1542 160.295 22.5752 159.887 22.1491C159.479 21.7231 158.91 21.4901 158.321 21.5081C157.723 21.4977 157.147 21.7291 156.723 22.1498C156.298 22.5705 156.062 23.1447 156.067 23.7422Z" fill="white"/>
<path d="M164.498 20.277H166.135V21.6059H166.269C166.648 20.663 167.585 20.0664 168.6 20.1229C168.856 20.099 169.114 20.099 169.37 20.1229V21.8178C169.055 21.74 168.732 21.7012 168.407 21.7022C167.836 21.6536 167.271 21.847 166.85 22.2352C166.429 22.6235 166.19 23.1708 166.192 23.7437V28.9437H164.498V20.277Z" fill="white"/>
<path d="M175.538 24.6072C175.538 21.8724 176.944 20.1198 179.14 20.1198C180.245 20.0724 181.279 20.6643 181.797 21.6413H181.932V16.8843H183.646V28.9406H182.009V27.5924H181.874C181.313 28.5654 180.262 29.1503 179.14 29.1139C176.944 29.0946 175.538 27.3421 175.538 24.6072ZM177.31 24.6072C177.31 26.4369 178.177 27.5539 179.621 27.5539C181.065 27.5539 181.971 26.4369 181.971 24.6072C181.971 22.7776 181.065 21.6606 179.621 21.6606C178.177 21.6606 177.31 22.7776 177.31 24.6072Z" fill="white"/>
<path d="M185.961 26.4961C185.961 24.9361 187.117 24.0309 189.178 23.8961L191.527 23.7613V23.0102C191.527 22.105 190.93 21.585 189.756 21.585C188.581 21.585 188.138 21.9317 187.945 22.548H186.25C186.424 21.065 187.83 20.1021 189.794 20.1021C191.758 20.1021 193.203 21.1806 193.203 23.0102V28.942H191.547V27.7287H191.412C190.853 28.6179 189.861 29.1396 188.812 29.0961C188.081 29.1608 187.357 28.9164 186.816 28.4222C186.274 27.928 185.964 27.2294 185.961 26.4961ZM191.527 25.745V25.0324L189.409 25.1672C188.215 25.1672 187.675 25.6487 187.675 26.4191C187.675 27.1895 188.35 27.6517 189.293 27.6517C189.857 27.7053 190.418 27.5221 190.842 27.1459C191.266 26.7697 191.514 26.2344 191.527 25.668V25.745Z" fill="white"/>
<path d="M195.882 20.2736H197.519V21.641H197.654C198.1 20.6318 199.135 20.0142 200.235 20.1003C201.091 20.0386 201.929 20.3686 202.513 20.9976C203.097 21.6266 203.364 22.4866 203.239 23.3358V28.9403H201.66V23.7403C201.66 22.3536 201.063 21.6603 199.734 21.6603C199.15 21.6132 198.576 21.8346 198.175 22.2619C197.774 22.6892 197.59 23.2758 197.673 23.8558V28.9403H195.882V20.2736Z" fill="white"/>
<path d="M209.089 20.1021C211.014 20.1021 212.324 21.0072 212.497 22.548H210.841C210.687 21.9124 210.071 21.508 209.089 21.508C208.106 21.508 207.413 21.9509 207.413 22.625C207.413 23.2991 207.856 23.4724 208.8 23.6843L210.225 24.0309C211.881 24.3969 212.652 25.1095 212.652 26.3806C212.652 28.0176 211.13 29.1154 209.069 29.1154C207.009 29.1154 205.66 28.1717 205.506 26.6502H207.22C207.533 27.4145 208.331 27.8618 209.146 27.7287C210.206 27.7287 210.976 27.2472 210.976 26.5539C210.976 25.8606 210.552 25.7065 209.686 25.4946L208.183 25.148C206.527 24.7628 205.757 24.0117 205.757 22.7213C205.757 21.4309 207.143 20.1021 209.089 20.1021Z" fill="white"/>
<path d="M77.3101 35.4316H80.8923V59.3516H77.3101V35.4316Z" fill="white"/>
<path d="M85.2178 44.1753L87.1437 35.4316H90.6296L88.2607 44.1753H85.2178Z" fill="white"/>
<path d="M104.188 52.8805H95.0782L92.8826 59.3516H89.0308L97.6589 35.4316H101.665L110.312 59.3516H106.46L104.188 52.8805ZM96.0219 49.8953H103.244L99.6811 39.399L96.0219 49.8953Z" fill="white"/>
<path d="M128.952 50.7056C128.952 56.1175 126.044 59.6034 121.672 59.6034C119.396 59.6997 117.265 58.4882 116.183 56.4834V65.1116H112.524V42.0005H115.991V44.9086C117.138 42.9355 119.276 41.7519 121.557 41.8271C126.025 41.7308 128.952 45.2167 128.952 50.7056ZM125.274 50.7056C125.274 47.1812 123.348 44.9279 120.671 44.9279C117.994 44.9279 116.087 47.2967 116.087 50.7056C116.087 54.1145 118.013 56.4834 120.671 56.4834C123.328 56.4834 125.274 54.1916 125.274 50.7056Z" fill="white"/>
<path d="M148.137 50.7059C148.137 56.1177 145.249 59.6037 140.877 59.6037C138.6 59.7046 136.466 58.4918 135.388 56.4837V65.1118H131.729V42.0007H135.176V44.9088C136.316 42.9388 138.447 41.755 140.723 41.8274C145.229 41.7311 148.137 45.217 148.137 50.7059ZM144.459 50.7059C144.459 47.1814 142.649 44.9281 139.856 44.9281C137.063 44.9281 135.291 47.297 135.291 50.7059C135.291 54.1148 137.121 56.4837 139.856 56.4837C142.591 56.4837 144.459 54.1918 144.459 50.7059Z" fill="white"/>
<path d="M160.823 52.6299C161.092 54.9988 163.384 56.4817 166.601 56.4817C169.817 56.4817 171.781 54.9217 171.781 52.7839C171.781 50.6462 170.472 49.818 167.371 49.0476L164.27 48.2965C159.879 47.2373 157.838 45.1765 157.838 41.8447C157.838 37.7232 161.439 34.8921 166.543 34.8921C171.647 34.8921 175.075 37.7232 175.19 41.8447H171.512C171.3 39.4565 169.316 37.9928 166.447 37.9928C163.577 37.9928 161.574 39.4373 161.574 41.5751C161.574 43.2506 162.845 44.2521 165.927 45.0225L168.565 45.658C173.476 46.8136 175.498 48.7973 175.498 52.2832C175.498 56.7706 171.935 59.5632 166.273 59.5632C160.977 59.5632 157.395 56.8284 157.164 52.5143L160.823 52.6299Z" fill="white"/>
<path d="M183.242 37.7803V41.9018H186.554V44.7329H183.242V54.3625C183.242 55.8647 183.897 56.558 185.36 56.558C185.726 56.558 186.304 56.558 186.535 56.558V59.3699C185.9 59.4895 185.255 59.5476 184.609 59.5432C181.065 59.5432 179.698 58.2143 179.698 54.8247V44.7329H177.156V41.9018H179.698V37.7803H183.242Z" fill="white"/>
<path d="M188.461 50.7034C188.461 45.2145 191.697 41.7671 196.743 41.7671C201.789 41.7671 205.005 45.2145 205.005 50.7034C205.005 56.1923 201.808 59.6397 196.743 59.6397C191.678 59.6397 188.461 56.1345 188.461 50.7034ZM201.365 50.7034C201.365 46.8515 199.632 44.7138 196.743 44.7138C193.854 44.7138 192.121 46.9478 192.121 50.7034C192.121 54.4589 193.835 56.693 196.743 56.693C199.651 56.693 201.365 54.4012 201.365 50.7034Z" fill="white"/>
<path d="M207.949 41.904H211.377V44.9277C211.858 43.0202 213.61 41.7105 215.575 41.7885C215.984 41.7815 216.392 41.8268 216.789 41.9233V45.2551C216.271 45.0976 215.731 45.026 215.19 45.0433C214.136 45.0029 213.116 45.4246 212.398 46.1981C211.68 46.9716 211.335 48.0198 211.454 49.0685V59.4107H207.872L207.949 41.904Z" fill="white"/>
<path d="M233.366 54.2277C232.884 57.3862 229.803 59.5625 225.855 59.5625C220.79 59.5625 217.65 56.1536 217.65 50.7033C217.65 45.2529 220.809 41.6899 225.72 41.6899C230.631 41.6899 233.578 45.0025 233.578 50.2988V51.5122H221.252V51.7433C221.141 53.0412 221.592 54.3246 222.49 55.2676C223.389 56.2106 224.649 56.7226 225.951 56.6736C227.686 56.8356 229.321 55.8417 229.976 54.2277H233.366ZM221.271 49.0085H229.996C230.055 47.8452 229.628 46.7097 228.817 45.8734C228.006 45.0371 226.885 44.5752 225.72 44.5981C224.544 44.5878 223.412 45.0479 222.576 45.8762C221.741 46.7044 221.271 47.8321 221.271 49.0085Z" fill="white"/>
</svg>
