<svg width="260" height="80" viewBox="0 0 260 80" fill="none" xmlns="http://www.w3.org/2000/svg">
<path d="M250.37 0H9.62963C4.31133 0 0 4.47715 0 10V70C0 75.5229 4.31133 80 9.62963 80H250.37C255.689 80 260 75.5229 260 70V10C260 4.47715 255.689 0 250.37 0Z" fill="black"/>
<path d="M129.535 43.6621C125.004 43.6728 121.34 47.3546 121.35 51.8858C121.361 56.417 125.043 60.0816 129.574 60.071C134.105 60.0603 137.77 56.3785 137.759 51.8473C137.791 49.6602 136.933 47.5538 135.383 46.0108C133.833 44.4677 131.722 43.6201 129.535 43.6621ZM129.535 56.8162C127.5 56.9585 125.585 55.8423 124.705 54.0013C123.826 52.1604 124.161 49.9689 125.551 48.4751C126.94 46.9812 129.102 46.4887 131.001 47.2329C132.901 47.9772 134.153 49.8071 134.158 51.8473C134.22 53.1236 133.765 54.371 132.894 55.3066C132.024 56.2422 130.813 56.7866 129.535 56.8162ZM111.586 43.6621C107.055 43.6728 103.39 47.3546 103.401 51.8858C103.411 56.417 107.093 60.0816 111.624 60.071C116.155 60.0603 119.82 56.3785 119.809 51.8473C119.841 49.6602 118.984 47.5538 117.433 46.0108C115.883 44.4677 113.773 43.6201 111.586 43.6621ZM111.586 56.8162C109.55 56.9585 107.635 55.8423 106.756 54.0013C105.876 52.1604 106.211 49.9689 107.601 48.4751C108.99 46.9812 111.152 46.4887 113.052 47.2329C114.951 47.9772 116.203 49.8071 116.208 51.8473C116.271 53.1236 115.815 54.371 114.945 55.3066C114.074 56.2422 112.863 56.7866 111.586 56.8162ZM90.2464 46.1851V49.6517H98.5664C98.436 51.2845 97.7572 52.8253 96.6405 54.0236C94.9527 55.7432 92.6153 56.667 90.2079 56.5658C85.1023 56.5658 80.9635 52.4269 80.9635 47.3214C80.9635 42.2158 85.1023 38.0769 90.2079 38.0769C92.5584 38.042 94.828 38.9346 96.5249 40.5614L98.9709 38.1154C96.652 35.822 93.5075 34.5586 90.2464 34.6103C85.5837 34.4288 81.1953 36.8129 78.81 40.8234C76.4247 44.8339 76.4247 49.8281 78.81 53.8386C81.1953 57.8491 85.5837 60.2332 90.2464 60.0517C93.5787 60.1848 96.8091 58.8884 99.1249 56.4888C101.147 54.267 102.225 51.345 102.129 48.3421C102.136 47.6194 102.078 46.8974 101.956 46.1851H90.2464ZM177.51 48.8814C176.482 45.8561 173.693 43.7797 170.5 43.6621C168.37 43.6579 166.334 44.5353 164.875 46.086C163.415 47.6366 162.663 49.7221 162.796 51.8473C162.762 55.4581 165.109 58.6603 168.563 59.715C172.016 60.7697 175.752 59.4253 177.741 56.4117L174.949 54.4858C174.102 55.8977 172.57 56.7551 170.923 56.7391C169.215 56.8097 167.639 55.8226 166.956 54.2547L177.915 49.7288L177.51 48.8814ZM166.34 51.6162C166.261 50.4077 166.672 49.2183 167.48 48.3162C168.288 47.414 169.425 46.875 170.635 46.8206C171.903 46.7432 173.095 47.4338 173.658 48.5732L166.34 51.6162ZM157.442 59.551H161.043V35.4769H157.442V59.551ZM151.549 45.4917H151.414C150.325 44.2518 148.75 43.5485 147.1 43.5658C142.728 43.7778 139.293 47.3839 139.293 51.7606C139.293 56.1373 142.728 59.7435 147.1 59.9554C148.753 59.9886 150.335 59.2824 151.414 58.0295H151.549V59.2043C151.549 62.3436 149.873 64.0191 147.177 64.0191C145.335 63.9787 143.699 62.8301 143.036 61.111L139.916 62.4014C141.097 65.3673 143.985 67.2976 147.177 67.2547C151.395 67.2547 154.881 64.7703 154.881 58.7228V44.1436H151.549V45.4917ZM147.408 56.8162C144.789 56.6529 142.748 54.4811 142.748 51.8569C142.748 49.2327 144.789 47.061 147.408 46.8977C148.654 46.9514 149.825 47.5086 150.653 48.4416C151.48 49.3747 151.894 50.6037 151.799 51.8473C151.905 53.0954 151.496 54.3326 150.667 55.2712C149.837 56.2098 148.66 56.7681 147.408 56.8162ZM194.381 35.4769H185.753V59.551H189.355V50.4221H194.381C197.179 50.6231 199.855 49.2444 201.315 46.8495C202.775 44.4545 202.775 41.4445 201.315 39.0496C199.855 36.6546 197.179 35.2759 194.381 35.4769ZM194.381 47.0325H189.355V38.828H194.458C195.931 38.828 197.291 39.6136 198.028 40.8888C198.764 42.164 198.764 43.7351 198.028 45.0103C197.291 46.2854 195.931 47.071 194.458 47.071L194.381 47.0325ZM216.606 43.5851C213.926 43.4198 211.404 44.8662 210.193 47.2636L213.371 48.5925C214.027 47.4098 215.317 46.7233 216.664 46.8399C217.588 46.732 218.516 46.9997 219.24 47.5827C219.964 48.1658 220.424 49.0154 220.516 49.9406V50.1717C219.358 49.563 218.069 49.2457 216.761 49.2473C213.332 49.2473 209.827 51.1732 209.827 54.6784C209.896 56.1837 210.572 57.5968 211.7 58.595C212.829 59.5931 214.314 60.091 215.817 59.9747C217.657 60.0765 219.409 59.1784 220.401 57.6251H220.516V59.551H223.983V50.2873C223.983 46.0695 220.786 43.6236 216.683 43.6236L216.606 43.5851ZM216.163 56.7777C214.989 56.7777 213.352 56.1806 213.352 54.7362C213.352 52.8103 215.393 52.1554 217.203 52.1554C218.348 52.1272 219.478 52.4066 220.478 52.9643C220.227 55.1273 218.418 56.7728 216.241 56.8162L216.163 56.7777ZM236.617 44.1436L232.495 54.5821H232.38L228.104 44.1436H224.252L230.666 58.7421L227.006 66.8503H230.762L240.623 44.1436H236.617ZM204.261 59.551H207.843V35.4769H204.261V59.551Z" fill="white"/>
<path d="M18.4135 16.295C17.7788 17.0453 17.455 18.0099 17.5083 18.9913V61.5928C17.4428 62.5757 17.7681 63.5448 18.4135 64.2891L18.5483 64.4431L42.4105 40.5809V40.0031L18.5483 16.1602L18.4135 16.295Z" fill="url(#paint0_linear_9570_2093)"/>
<path d="M50.3089 48.5328L42.4126 40.5787V40.0009L50.3089 32.0469L50.4822 32.1624L59.9385 37.5165C62.6348 39.038 62.6348 41.5417 59.9385 43.0824L50.5207 48.4365L50.3089 48.5328Z" fill="url(#paint1_linear_9570_2093)"/>
<path d="M50.538 48.4165L42.4106 40.2891L18.4136 64.2861C19.5365 65.2856 21.2124 65.3423 22.4002 64.4209L50.538 48.4165Z" fill="url(#paint2_linear_9570_2093)"/>
<path d="M50.538 32.163L22.4002 16.1778C21.2196 15.2432 19.5381 15.292 18.4136 16.2934L42.4106 40.2904L50.538 32.163Z" fill="url(#paint3_linear_9570_2093)"/>
<path opacity="0.2" d="M50.3069 48.2451L22.4002 64.134C21.2604 64.9943 19.6882 64.9943 18.5484 64.134L18.4136 64.2688L18.5484 64.4229C19.6882 65.2832 21.2604 65.2832 22.4002 64.4229L50.538 48.4185L50.3069 48.2451Z" fill="black"/>
<path opacity="0.12" d="M18.4097 64.0173C17.7911 63.2534 17.4879 62.2819 17.5623 61.3018V61.5906C17.4968 62.5736 17.8221 63.5427 18.4675 64.2869L18.6023 64.1521L18.4097 64.0173Z" fill="black"/>
<path opacity="0.12" d="M59.9377 42.7937L50.3081 48.2441L50.4814 48.4174L59.9377 43.0634C61.0748 42.5826 61.858 41.5186 61.9792 40.29C61.735 41.4015 60.9773 42.3308 59.9377 42.7937Z" fill="black"/>
<path opacity="0.25" d="M22.3958 16.4471L59.9321 37.7863C60.9716 38.2492 61.7293 39.1786 61.9735 40.29C61.8523 39.0615 61.0691 37.9975 59.9321 37.5167L22.3958 16.1774C19.7187 14.6367 17.5039 15.9078 17.5039 18.9893V19.2782C17.5617 16.1967 19.7187 14.9256 22.3958 16.4471Z" fill="white"/>
<path d="M77.8125 26.8094V15.2538H81.3369C82.9211 15.1772 84.4671 15.7552 85.6125 16.8523C86.685 17.9742 87.2611 19.4804 87.211 21.0316C87.2611 22.5828 86.685 24.089 85.6125 25.2109C84.4671 26.3079 82.9211 26.8859 81.3369 26.8094H77.8125ZM79.2955 25.3842H81.3369C82.5211 25.492 83.6919 25.0682 84.5327 24.2274C85.3735 23.3866 85.7973 22.2157 85.6895 21.0316C85.7904 19.8492 85.3643 18.6825 84.5251 17.8434C83.686 17.0043 82.5194 16.5782 81.3369 16.679H79.2955V25.3842Z" fill="white" stroke="white" stroke-width="0.385185"/>
<path d="M89.2876 26.808V15.2524H90.7513V26.808H89.2876Z" fill="white" stroke="white" stroke-width="0.385185"/>
<path d="M96.6556 27.0618C95.7769 27.0476 94.9235 26.7654 94.2096 26.2529C93.412 25.7079 92.8483 24.883 92.6304 23.9418L93.9785 23.3833C94.1438 24.0103 94.4925 24.5736 94.98 25.0011C95.44 25.4163 96.0359 25.6492 96.6556 25.6559C97.2507 25.6759 97.8349 25.4925 98.3119 25.1359C98.7607 24.8279 99.022 24.3126 99.0052 23.7685C99.0364 23.184 98.7769 22.6218 98.3119 22.2663C97.6527 21.8208 96.9236 21.4888 96.1548 21.2841C95.2882 21.0615 94.4885 20.632 93.8244 20.0322C93.3045 19.5282 93.0184 18.8302 93.0348 18.1063C93.0356 17.2737 93.3932 16.4814 94.017 15.93C95.449 14.7894 97.4584 14.719 98.9667 15.7567C99.5213 16.1523 99.9387 16.7111 100.161 17.3552L98.8126 17.9137C98.6847 17.514 98.4357 17.164 98.1 16.9122C97.6804 16.5773 97.1534 16.4062 96.617 16.4307C96.0889 16.4221 95.5732 16.5917 95.1533 16.9122C94.7738 17.191 94.5516 17.6354 94.5563 18.1063C94.5511 18.5364 94.7605 18.9409 95.1148 19.1848C95.6081 19.5496 96.1624 19.8235 96.7519 19.9937C97.2367 20.1388 97.7126 20.3124 98.177 20.5137C98.5866 20.7016 98.9741 20.9341 99.3326 21.207C99.7131 21.4791 100.018 21.8437 100.219 22.2663C100.435 22.7299 100.541 23.2377 100.527 23.7492C100.535 24.2708 100.416 24.7865 100.18 25.2515C99.9682 25.673 99.6494 26.0317 99.2556 26.2915C98.8793 26.5551 98.4631 26.7567 98.023 26.8885C97.5782 27.0132 97.1174 27.0716 96.6556 27.0618Z" fill="white" stroke="white" stroke-width="0.385185"/>
<path d="M104.236 26.8085H102.753V15.253H106.605C107.548 15.2368 108.46 15.5892 109.147 16.2352C109.835 16.8663 110.227 17.7571 110.227 18.6908C110.227 19.6244 109.835 20.5152 109.147 21.1463C108.46 21.7923 107.548 22.1447 106.605 22.1285H104.236V26.8085ZM104.236 20.7033H106.74C107.3 20.7236 107.842 20.4986 108.223 20.0871C108.605 19.7234 108.822 19.2187 108.822 18.6908C108.822 18.1628 108.605 17.6581 108.223 17.2945C107.842 16.8829 107.3 16.6579 106.74 16.6782H104.236V20.7033Z" fill="white" stroke="white" stroke-width="0.385185"/>
<path d="M121.561 25.3072C120.438 26.4315 118.914 27.0632 117.324 27.0632C115.735 27.0632 114.21 26.4315 113.087 25.3072C110.827 22.9048 110.827 19.1585 113.087 16.7561C114.21 15.6317 115.735 15 117.324 15C118.914 15 120.438 15.6317 121.561 16.7561C122.671 17.8985 123.275 19.4393 123.237 21.0316C123.293 22.6271 122.686 24.1747 121.561 25.3072ZM114.185 24.3442C115.005 25.1961 116.142 25.6702 117.324 25.6538C118.508 25.6773 119.647 25.202 120.463 24.3442C122.186 22.4719 122.186 19.5913 120.463 17.719C119.647 16.8612 118.508 16.3859 117.324 16.4094C116.142 16.393 115.005 16.8671 114.185 17.719C112.489 19.6018 112.489 22.4614 114.185 24.3442Z" fill="white" stroke="white" stroke-width="0.385185"/>
<path d="M125.423 26.808V15.2524H127.234L132.838 24.2465V22.0124V15.2524H134.34V26.808H132.78L127.003 17.3902V19.605V26.808H125.423Z" fill="white" stroke="white" stroke-width="0.385185"/>
<path d="M136.97 26.808V15.2524H138.453V26.808H136.97Z" fill="white" stroke="white" stroke-width="0.385185"/>
<path d="M140.993 26.8082V15.2526H145.172C146.038 15.2439 146.877 15.56 147.522 16.1385C148.173 16.7039 148.54 17.5294 148.523 18.3919C148.528 18.9107 148.38 19.4195 148.099 19.8556C147.815 20.2691 147.422 20.5957 146.963 20.7993C147.519 20.9894 148.008 21.3374 148.369 21.8008C148.723 22.2727 148.912 22.8478 148.908 23.4378C148.928 24.3367 148.547 25.1978 147.868 25.7874C147.2 26.4095 146.316 26.7478 145.403 26.7311L140.993 26.8082ZM142.476 20.2022H145.172C145.683 20.2318 146.18 20.0261 146.52 19.6437C146.847 19.3237 147.034 18.8876 147.04 18.4304C147.058 17.9718 146.9 17.5237 146.597 17.1785C146.269 16.8149 145.796 16.617 145.307 16.6393H142.476V20.2022ZM142.476 25.383H145.48C146.008 25.4007 146.517 25.1818 146.867 24.7859C147.199 24.4308 147.385 23.9629 147.387 23.4763C147.375 22.9938 147.183 22.5333 146.847 22.1859C146.472 21.7917 145.947 21.5748 145.403 21.5889H142.476V25.383Z" fill="white" stroke="white" stroke-width="0.385185"/>
<path d="M150.914 26.808V15.2524H152.377V25.3828H157.385V26.808H150.914Z" fill="white" stroke="white" stroke-width="0.385185"/>
<path d="M166.021 16.6776H160.763V20.3369H165.501V21.7236H160.763V25.3828H166.021V26.808H159.28V15.2524H166.021V16.6776Z" fill="white" stroke="white" stroke-width="0.385185"/>
<path d="M174.99 27.0618C174.106 27.0455 173.247 26.7636 172.525 26.2529C171.734 25.7044 171.178 24.88 170.965 23.9418L172.313 23.3833C172.478 24.0103 172.827 24.5736 173.314 25.0011C173.775 25.4163 174.37 25.6492 174.99 25.6559C175.585 25.6729 176.168 25.4898 176.646 25.1359C177.095 24.8279 177.356 24.3126 177.34 23.7685C177.371 23.184 177.111 22.6218 176.646 22.2663C175.98 21.8213 175.245 21.4895 174.47 21.2841C173.609 21.0616 172.816 20.6318 172.159 20.0322C171.631 19.5338 171.343 18.832 171.369 18.1063C171.37 17.2737 171.728 16.4814 172.352 15.93C173.784 14.7894 175.793 14.719 177.301 15.7567C177.856 16.1523 178.273 16.7111 178.495 17.3552L177.147 17.9137C177.02 17.5083 176.763 17.1562 176.415 16.9122C176.004 16.5753 175.482 16.4037 174.952 16.4307C174.423 16.4221 173.908 16.5917 173.488 16.9122C173.103 17.189 172.874 17.6327 172.872 18.1063C172.876 18.534 173.083 18.9343 173.43 19.1848C173.928 19.5418 174.481 19.815 175.067 19.9937C175.559 20.1359 176.042 20.3096 176.512 20.5137C176.919 20.706 177.306 20.9382 177.667 21.207C178.048 21.4791 178.352 21.8437 178.553 22.2663C178.76 22.733 178.865 23.2386 178.861 23.7492C178.87 24.2708 178.751 24.7865 178.514 25.2515C178.303 25.673 177.984 26.0317 177.59 26.2915C177.214 26.5551 176.798 26.7567 176.357 26.8885C175.913 27.0132 175.452 27.0716 174.99 27.0618Z" fill="white" stroke="white" stroke-width="0.385185"/>
<path d="M185 27.0584C183.834 27.1079 182.704 26.6515 181.899 25.8065C181.092 24.9049 180.67 23.7224 180.724 22.5132V15.2524H182.207V22.571C182.168 23.3772 182.421 24.1705 182.92 24.805C183.449 25.3878 184.214 25.6995 185 25.6524C185.762 25.7156 186.511 25.4327 187.041 24.8821C187.547 24.2502 187.807 23.4566 187.773 22.648V15.2524H189.256V22.5132C189.314 23.7195 188.9 24.9009 188.101 25.8065C187.301 26.6581 186.167 27.1157 185 27.0584Z" fill="white" stroke="white" stroke-width="0.385185"/>
<path d="M191.673 26.8085V15.253H195.525C196.468 15.2368 197.38 15.5892 198.067 16.2352C198.776 16.855 199.172 17.759 199.146 18.7004C199.146 19.4842 198.866 20.2422 198.356 20.8382C197.864 21.431 197.185 21.8386 196.43 21.9937L199.666 26.8085H197.913L194.755 22.1285H193.118V26.8085H191.673ZM193.156 20.7419H195.544C196.107 20.7533 196.653 20.5462 197.066 20.1641C197.479 19.791 197.711 19.2572 197.701 18.7004C197.697 18.1786 197.497 17.6774 197.143 17.2945C196.758 16.8777 196.208 16.6522 195.641 16.6782H193.156V20.7419Z" fill="white" stroke="white" stroke-width="0.385185"/>
<defs>
<linearGradient id="paint0_linear_9570_2093" x1="1538.17" y1="254.975" x2="-507.793" y2="2300.94" gradientUnits="userSpaceOnUse">
<stop stop-color="#00A0FF"/>
<stop offset="0.01" stop-color="#00A1FF"/>
<stop offset="0.26" stop-color="#00BEFF"/>
<stop offset="0.51" stop-color="#00D2FF"/>
<stop offset="0.76" stop-color="#00DFFF"/>
<stop offset="1" stop-color="#00E3FF"/>
</linearGradient>
<linearGradient id="paint1_linear_9570_2093" x1="2147.45" y1="856.343" x2="-2511.37" y2="856.343" gradientUnits="userSpaceOnUse">
<stop stop-color="#FFE000"/>
<stop offset="0.41" stop-color="#FFBD00"/>
<stop offset="0.78" stop-color="#FFA500"/>
<stop offset="1" stop-color="#FF9C00"/>
</linearGradient>
<linearGradient id="paint2_linear_9570_2093" x1="2789.82" y1="805.513" x2="-707.069" y2="4300.87" gradientUnits="userSpaceOnUse">
<stop stop-color="#FF3A44"/>
<stop offset="1" stop-color="#C31162"/>
</linearGradient>
<linearGradient id="paint3_linear_9570_2093" x1="-586.327" y1="-279.657" x2="974.293" y2="1280.96" gradientUnits="userSpaceOnUse">
<stop stop-color="#32A071"/>
<stop offset="0.07" stop-color="#2DA771"/>
<stop offset="0.48" stop-color="#15CF74"/>
<stop offset="0.8" stop-color="#06E775"/>
<stop offset="1" stop-color="#00F076"/>
</linearGradient>
</defs>
</svg>
